<?xml version="1.0" encoding="UTF-8" standalone="no"?>
<!-- Created with Inkscape (http://www.inkscape.org/) -->

<svg
   width="1920"
   height="1080"
   viewBox="0 0 1920 1080"
   version="1.1"
   id="svg1"
   inkscape:version="1.4.2 (f4327f4, 2025-05-13)"
   sodipodi:docname="Encaline.svg"
   inkscape:export-filename="Encaline.png"
   inkscape:export-xdpi="96"
   inkscape:export-ydpi="96"
   xmlns:inkscape="http://www.inkscape.org/namespaces/inkscape"
   xmlns:sodipodi="http://sodipodi.sourceforge.net/DTD/sodipodi-0.dtd"
   xmlns="http://www.w3.org/2000/svg"
   xmlns:svg="http://www.w3.org/2000/svg">
  <sodipodi:namedview
     id="namedview1"
     pagecolor="#ffffff"
     bordercolor="#000000"
     borderopacity="0.25"
     inkscape:showpageshadow="2"
     inkscape:pageopacity="0.0"
     inkscape:pagecheckerboard="0"
     inkscape:deskcolor="#d1d1d1"
     inkscape:document-units="px"
     inkscape:zoom="0.53360373"
     inkscape:cx="957.63948"
     inkscape:cy="551.90769"
     inkscape:window-width="1920"
     inkscape:window-height="1017"
     inkscape:window-x="-8"
     inkscape:window-y="-8"
     inkscape:window-maximized="1"
     inkscape:current-layer="layer1" />
  <defs
     id="defs1">
    <inkscape:path-effect
       effect="perspective-envelope"
       up_left_point="903.32714,426.89755"
       up_right_point="1747.8324,447.09953"
       down_left_point="1164.887,854.89194"
       down_right_point="1871.0171,651.73499"
       id="path-effect30"
       is_visible="true"
       lpeversion="1"
       deform_type="perspective"
       horizontal_mirror="false"
       vertical_mirror="false"
       overflow_perspective="false" />
    <inkscape:path-effect
       effect="perspective-envelope"
       up_left_point="227.41371,467.1567"
       up_right_point="1431.6659,411.06979"
       down_left_point="126.70559,655.04666"
       down_right_point="1015.126,872.72385"
       id="path-effect29"
       is_visible="true"
       lpeversion="1"
       deform_type="perspective"
       horizontal_mirror="false"
       vertical_mirror="false"
       overflow_perspective="false" />
    <inkscape:path-effect
       effect="slice"
       start_point="1084.2344,747.22972"
       end_point="1054.8028,417.72329"
       center_point="1069.5186,582.47651"
       id="path-effect28"
       is_visible="true"
       lpeversion="1.2"
       lpesatellites="#path28"
       allow_transforms="true" />
    <inkscape:path-effect
       effect="perspective-envelope"
       up_left_point="921.6247,113.98189"
       up_right_point="1630.2688,266.72215"
       down_left_point="1072.7801,1448.7452"
       down_right_point="1745.5571,744.9762"
       id="path-effect26"
       is_visible="true"
       lpeversion="1"
       deform_type="perspective"
       horizontal_mirror="false"
       vertical_mirror="false"
       overflow_perspective="false" />
    <inkscape:path-effect
       effect="perspective-envelope"
       up_left_point="350.84536,311.03254"
       up_right_point="1028.7065,112.62101"
       down_left_point="266.03555,755.72156"
       down_right_point="849.66329,1347.9207"
       id="path-effect25"
       is_visible="true"
       lpeversion="1"
       deform_type="perspective"
       horizontal_mirror="false"
       vertical_mirror="false"
       overflow_perspective="false" />
    <inkscape:perspective
       sodipodi:type="inkscape:persp3d"
       inkscape:vp_x="-176.75354 : 162.64746 : 1"
       inkscape:vp_y="0 : 1445.7521 : 0"
       inkscape:vp_z="2320.6971 : 162.64746 : 1"
       inkscape:persp3d-origin="1071.9718 : -97.587931 : 1"
       id="perspective19" />
    <inkscape:path-effect
       effect="perspective-envelope"
       up_left_point="876.72087,514.89008"
       up_right_point="919.36178,509.08958"
       down_left_point="876.1908,521.19787"
       down_right_point="920.11902,525.93494"
       id="path-effect3"
       is_visible="true"
       lpeversion="1"
       deform_type="perspective"
       horizontal_mirror="false"
       vertical_mirror="false"
       overflow_perspective="false" />
  </defs>
  <g
     inkscape:label="Capa 1"
     inkscape:groupmode="layer"
     id="layer1">
    <path
       d="m 903.32714,426.89755 261.55986,427.99439 253.2862,-72.87163 -42.1849,-69.4014 -87.0639,18.8337 -182.4933,-299.69647 z m 339.50206,8.12146 205.5128,338.3216 108.788,-31.29881 -184.1809,-303.91011 z m 175.1778,4.19054 176.8132,291.98858 69.7326,-20.06239 -74.0765,-122.5125 112.3826,111.49166 57.3168,-16.49031 -144.6302,-239.68958 -65.0641,-1.55645 69.9967,115.86701 L 1501.3394,441.203 Z m 225.7668,5.40073 140.0468,232.21154 87.1965,-25.08683 -24.6073,-40.87783 -35.567,7.69387 -28.5163,-47.33671 31.7457,-4.5591 -23.6151,-39.22535 -32.8251,2.79196 -24.6372,-40.8974 36.1169,-1.09448 -24.8118,-41.21492 z"
       id="text3"
       style="font-stretch:condensed;font-size:12px;font-family:Impact;-inkscape-font-specification:'Impact, Condensed';white-space:pre;inline-size:50.085;stroke-width:28.1816"
       aria-label="ENCALINE"
       inkscape:path-effect="#path-effect28;#path-effect30"
       inkscape:original-d="m 484.65957,437.91448 h 102.29197 v 60.6281 h -40.94582 v 57.44698 h 38.32291 v 57.63413 h -38.32291 v 66.61598 h 45.0258 v 60.62779 H 484.65957 Z m 260.97573,0 v 302.95298 h -53.76888 l -31.91153,-137.7229 v 137.7229 H 608.66317 V 437.91448 h 51.29172 L 694.3436,574.32774 V 437.91448 Z m 167.86379,132.10924 h -61.34612 v -52.76874 q 0,-23.01608 -2.03924,-28.62976 -1.89499,-5.80104 -8.59711,-5.80104 -7.57725,0 -9.61723,6.92362 -2.03923,6.9237 -2.03923,29.93979 v 140.7168 q 0,22.08075 2.03923,28.81723 2.03925,6.73623 9.18004,6.73623 6.8486,0 8.88856,-6.73623 2.18597,-6.73648 2.18597,-31.62407 v -37.98589 h 61.34614 v 11.78877 q 0,46.96784 -5.2458,66.61598 -5.10008,19.64781 -22.87723,34.43056 -17.63141,14.78275 -43.56873,14.78275 -26.95745,0 -44.44312,-12.53729 -17.48595,-12.53704 -23.1687,-34.61771 -5.683,-22.26791 -5.683,-66.80321 v -88.50926 q 0,-32.74663 1.74827,-49.02649 1.74828,-16.46668 10.34588,-31.62374 8.74285,-15.15705 24.04309,-23.76468 15.44569,-8.79478 35.40855,-8.79478 27.10317,0 44.73458,13.47278 17.63168,13.47303 23.16869,33.68229 5.53727,20.0221 5.53727,62.49919 z m 127.93781,-132.10924 35.1175,302.95298 h -62.8033 l -3.0601,-54.453 h -22.00284 l -3.64302,54.453 H 921.5133 l 31.18313,-302.95298 z m -32.4944,194.79558 q -4.6629,-51.4587 -9.32578,-127.05661 -9.32577,86.82523 -11.65722,127.05661 z m 139.4494,-194.79558 v 242.32519 h 37.3031 v 60.62779 h -98.6492 V 437.91448 Z m 113.512,0 v 302.95298 h -61.3458 V 437.91448 Z m 161.5981,0 v 302.95298 h -53.7689 l -31.9116,-137.7229 v 137.7229 h -51.2917 V 437.91448 h 51.2917 l 34.3888,136.41326 V 437.91448 Z m 24.6261,0 h 102.2918 v 60.6281 h -40.9459 v 57.44698 h 38.323 v 57.63413 h -38.323 v 66.61598 h 45.0259 v 60.62779 h -106.3718 z"
       transform="matrix(0.89178698,0.505679,-0.53683053,0.8400378,393.9528,-720.81168)" />
    <path
       id="path28"
       d="m 662.9928,446.87001 c -25.48692,1.18703 -49.04764,5.0552 -70.9021,11.46429 -20.84177,6.05931 -38.723,13.81483 -53.91703,23.25732 -14.69268,9.22174 -25.87073,18.6169 -33.72733,28.27066 -7.71277,9.45284 -17.49603,23.57215 -29.29832,42.25579 l -46.41963,73.48476 c -15.07662,23.86709 -23.82381,41.95993 -26.42852,54.58883 -2.54953,12.56472 1.50483,23.79702 12.40314,33.8834 11.21799,10.38262 29.44378,18.74976 55.45856,25.1238 26.41807,6.47285 52.74485,7.8424 78.73618,3.70733 27.36262,-4.28626 49.1041,-11.99484 64.49509,-23.14115 15.90114,-11.34144 35.06966,-32.50687 57.60933,-63.8123 l 8.61162,-11.9607 -117.13464,-14.16933 -23.44893,34.61804 c -10.07236,14.86999 -17.59914,24.02279 -22.63109,27.55256 -4.84029,3.5337 -10.85498,4.59129 -17.99217,3.206 -7.33476,-1.42364 -10.71409,-4.25215 -10.21426,-8.49512 0.49916,-4.23658 4.95427,-12.68628 13.42096,-25.43784 l 84.7985,-127.71359 c 9.69186,-14.59672 17.26208,-24.15552 22.67218,-28.59734 5.4506,-4.4743 12.84111,-6.73593 22.25098,-6.76012 8.45544,-0.0217 12.63832,1.89544 12.45849,5.7574 0.0893,3.74523 -5.03933,13.25789 -15.30794,28.41764 l -34.55935,51.02063 122.68498,9.21481 22.09361,-30.68588 c 22.15272,-30.76799 34.32345,-53.82716 36.16788,-68.66096 1.93625,-14.90991 -7.42155,-26.98582 -27.49806,-36.02272 -19.35983,-8.71425 -47.89645,-12.06549 -84.38213,-10.36621 z m -437.73448,24.30798 -96.64151,180.30292 74.24392,17.71569 21.60824,-38.28501 -34.91299,-6.24181 22.72954,-41.20963 30.90124,3.56481 21.44864,-38.13721 -32.17454,-2.00634 20.60051,-37.34961 35.89973,0.40072 23.85663,-42.36019 z m 108.93076,-4.48572 -117.29721,205.85237 44.18749,10.54378 56.06543,-95.52443 -25.72097,102.76507 56.98035,13.59634 151.58617,-244.06075 -69.25905,2.85206 -64.17391,107.00948 22.86466,-105.30838 z m 594.84195,-24.49531 -319.46054,324.04656 138.72258,33.10124 55.61981,-57.00762 60.75292,11.22598 -41.64872,63.61189 199.31712,47.55998 228.3947,-435.7854 z m 80.57927,85.22657 c -41.84384,65.39345 -74.54667,119.07495 -98.7296,161.95385 l -61.07373,-8.14065 c 29.11249,-30.82644 81.15784,-80.9908 159.80333,-153.8132 z"
       style="font-stretch:condensed;font-size:12px;font-family:Impact;-inkscape-font-specification:'Impact, Condensed';white-space:pre;inline-size:50.085;display:inline;stroke-width:28.1816"
       transform="matrix(0.67421836,-0.43373382,0.36137781,0.90121025,-27.920724,250.50163)"
       inkscape:path-effect="#path-effect29"
       inkscape:original-d="m 840.05859,431.55273 c -13.30857,0 -25.11107,2.93174 -35.4082,8.79493 -10.20016,5.73842 -18.2144,13.65897 -24.04297,23.76367 -5.73173,10.1047 -9.18018,20.64721 -10.3457,31.625 -1.16551,10.85324 -1.74805,27.1943 -1.74805,49.02539 v 88.50976 c 0,29.6902 1.89493,51.95747 5.6836,66.80274 3.7885,14.72045 11.51066,26.26111 23.16796,34.61914 11.65712,8.35819 26.47173,12.53711 44.44336,12.53711 17.29155,0 31.81409,-4.92804 43.56836,-14.7832 11.85144,-9.85517 19.4769,-21.33311 22.87696,-34.43165 3.4972,-13.09875 5.24609,-35.30334 5.24609,-66.61523 v -11.78906 h -61.3457 v 37.98633 c 0,16.59172 -0.72824,27.13206 -2.18555,31.62304 -1.35997,4.49082 -4.32294,6.73633 -8.88867,6.73633 -4.76053,0 -7.82214,-2.24551 -9.18164,-6.73633 -1.35949,-4.49098 -2.03906,-14.0959 -2.03907,-28.8164 V 519.6875 c 10e-6,-15.34406 0.67958,-25.32365 2.03907,-29.93945 1.35998,-4.61575 4.56764,-6.92383 9.61914,-6.92383 4.46808,0 7.33237,1.93342 8.5957,5.80078 1.35949,3.74245 2.03906,13.28681 2.03906,28.63086 v 52.76758 H 913.5 v -28.81641 c 0,-28.31806 -1.8456,-49.15193 -5.53711,-62.5 -3.69134,-13.47284 -11.41547,-24.69962 -23.16992,-33.68164 -11.75427,-8.98185 -26.6656,-13.47266 -44.73438,-13.47266 z m -355.39843,6.36133 v 302.95313 h 106.37109 v -60.62696 h -45.02539 v -66.61718 h 38.32226 v -57.63282 h -38.32226 v -57.44726 h 40.94531 v -60.62891 z m 124.0039,0 v 302.95313 h 51.29102 V 603.14453 l 31.91211,137.72266 h 53.76758 V 437.91406 H 694.34375 V 574.32812 L 659.95508,437.91406 Z m 344.03321,0 -31.1836,302.95313 h 63.53125 l 3.64258,-54.45313 h 22.0039 l 3.0606,54.45313 h 62.8027 l -35.1172,-302.95313 z m 46.91992,67.74024 c 3.10861,50.3986 6.21761,92.75084 9.32621,127.05664 h -20.98442 c 1.5543,-26.82092 5.44103,-69.17316 11.65821,-127.05664 z" />
  </g>
</svg>
